<?xml version="1.0" encoding="utf-8"?>
<!-- Generator: Adobe Illustrator 16.0.0, SVG Export Plug-In . SVG Version: 6.00 Build 0)  -->
<!DOCTYPE svg PUBLIC "-//W3C//DTD SVG 1.1//EN" "http://www.w3.org/Graphics/SVG/1.1/DTD/svg11.dtd">
<svg version="1.1" id="Layer_1" xmlns="http://www.w3.org/2000/svg" xmlns:xlink="http://www.w3.org/1999/xlink" x="0px" y="0px"
	 width="1918.447px" height="279.086px" viewBox="0 0 1918.447 279.086" enable-background="new 0 0 1918.447 279.086"
	 xml:space="preserve">
<g>
	<g>
		<path fill="#24353C" d="M152.013,18.612v28.79v202.894v28.79c71.931,0,130.237-58.315,130.237-130.243
			C282.25,76.921,223.944,18.612,152.013,18.612z M235.824,82.034c8.754,0,15.848,7.088,15.848,15.842
			c0,8.748-7.093,15.836-15.848,15.836c-8.746,0-15.836-7.088-15.836-15.836C219.988,89.122,227.078,82.034,235.824,82.034z
			 M189.732,82.034c6.172,0,11.177,5.006,11.177,11.18c0,6.181-5.005,11.18-11.177,11.18c-6.177,0-11.183-5-11.183-11.18
			C178.549,87.04,183.555,82.034,189.732,82.034z M178.549,152.105c0-8.749,7.097-15.843,15.839-15.843
			c8.754,0,15.845,7.094,15.845,15.843c0,8.748-7.09,15.836-15.845,15.836C185.646,167.941,178.549,160.854,178.549,152.105z
			 M219.982,215.658c-8.746,0-15.842-7.088-15.842-15.837c0-8.754,7.097-15.842,15.842-15.842c8.748,0,15.842,7.088,15.842,15.842
			C235.824,208.57,228.73,215.658,219.982,215.658z M245.771,160.064c-5.492,0-9.946-4.448-9.946-9.94
			c0-5.486,4.454-9.94,9.946-9.94c5.495,0,9.947,4.454,9.947,9.94C255.717,155.616,251.266,160.064,245.771,160.064z"/>
		<path fill="#24353C" d="M69.774,0c-8.903,0-16.136,7.236-16.136,16.132v2.48v22.413c0,8.897,7.233,16.133,16.136,16.133
			c8.894,0,16.133-7.236,16.133-16.133V18.612v-2.48C85.907,7.236,78.668,0,69.774,0z"/>
		<path fill="#F85B3C" d="M139.543,93.078V18.612H93.28v22.413c0,12.96-10.545,23.506-23.505,23.506
			c-12.962,0-23.511-10.546-23.511-23.506V18.612H27.909C12.497,18.612,0,31.109,0,46.518v46.56H139.543z"/>
		<path fill="#24353C" d="M0,105.545V251.18c0,15.415,12.497,27.906,27.909,27.906h111.634V105.545H0z"/>
	</g>
	<g>
		<polygon fill="#24353C" points="504.625,131.892 369.012,131.892 369.012,65.973 337.698,65.973 337.698,231.726 369.012,231.726 
			369.012,156.382 504.625,156.382 504.625,231.726 535.939,231.726 535.939,65.973 504.625,65.973 		"/>
		<path fill="#24353C" d="M661.428,65.973L551.241,231.726h34.846l34.145-52.468h104.608l33.589,52.468h35.315L684.266,65.973
			H661.428z M636.173,154.769l36.794-56.542l36.195,56.542H636.173z"/>
		<polygon fill="#24353C" points="840.601,65.973 809.049,65.973 809.049,231.726 975.036,231.726 975.036,207.235 840.601,207.235 
					"/>
		<path fill="#24353C" d="M1171.862,191.933c0,10.202-6.91,15.303-20.718,15.303h-102.891c-13.813,0-20.718-5.101-20.718-15.303
			V65.973h-31.313v125.723c0,5.967,0.943,11.383,2.823,16.246c1.884,4.869,4.905,9.063,9.068,12.598
			c4.152,3.535,9.532,6.281,16.124,8.239c6.592,1.969,14.6,2.947,24.016,2.947h109.48c9.418,0,17.07-0.979,22.957-2.947
			c5.887-1.958,10.512-4.704,13.891-8.239c3.371-3.535,5.649-7.729,6.829-12.598c1.175-4.863,1.762-10.279,1.762-16.246V65.973
			h-31.311V191.933z"/>
		<polygon fill="#24353C" points="1425.198,189.109 1260.154,65.973 1233.075,65.973 1233.075,231.726 1260.386,231.726 
			1260.386,102.698 1437.205,231.726 1452.508,231.726 1452.508,65.973 1425.198,65.973 		"/>
		<path fill="#24353C" d="M1577.994,65.973l-110.184,165.753h34.847l34.143-52.468h104.608l33.591,52.468h35.313L1600.836,65.973
			H1577.994z M1552.739,154.769l36.795-56.542l36.197,56.542H1552.739z"/>
		<path fill="#24353C" d="M1918.447,117.77v-11.773c0-5.967-0.939-11.376-2.826-16.245c-1.883-4.864-4.904-9.063-9.063-12.598
			c-4.161-3.529-9.537-6.275-16.131-8.238c-6.592-1.963-14.596-2.942-24.016-2.942h-140.791v165.753h31.311v-73.933h87.353
			l38.847,73.933h33.434l-39.084-74.401c14.75-1.417,25.27-5.688,31.552-12.834C1915.307,137.348,1918.447,128.445,1918.447,117.77z
			 M1887.134,118.001c0,10.207-6.91,15.308-20.722,15.308h-109.48V90.456h109.48c13.812,0,20.722,5.101,20.722,15.303V118.001z"/>
	</g>
</g>
</svg>
