<?xml version="1.0" encoding="utf-8"?>
<!-- Generator: Adobe Illustrator 16.0.0, SVG Export Plug-In . SVG Version: 6.00 Build 0)  -->
<!DOCTYPE svg PUBLIC "-//W3C//DTD SVG 1.1//EN" "http://www.w3.org/Graphics/SVG/1.1/DTD/svg11.dtd">
<svg version="1.1" id="Layer_1" xmlns="http://www.w3.org/2000/svg" xmlns:xlink="http://www.w3.org/1999/xlink" x="0px" y="0px"
	 width="559.018px" height="552.751px" viewBox="0 0 559.018 552.751" enable-background="new 0 0 559.018 552.751"
	 xml:space="preserve">
<g>
	<path fill="#24353C" d="M301.074,36.863v57.02v401.849v57.02c142.463,0,257.943-115.498,257.943-257.956
		C559.018,152.35,443.537,36.863,301.074,36.863z M467.068,162.475c17.338,0,31.387,14.039,31.387,31.378
		c0,17.325-14.049,31.364-31.387,31.364c-17.324,0-31.365-14.039-31.365-31.364C435.703,176.514,449.744,162.475,467.068,162.475z
		 M375.779,162.475c12.223,0,22.139,9.916,22.139,22.143c0,12.243-9.916,22.144-22.139,22.144c-12.234,0-22.15-9.9-22.15-22.144
		C353.629,172.391,363.545,162.475,375.779,162.475z M353.629,301.256c0-17.327,14.057-31.378,31.373-31.378
		c17.338,0,31.381,14.051,31.381,31.378c0,17.326-14.043,31.365-31.381,31.365C367.686,332.621,353.629,318.582,353.629,301.256z
		 M435.689,427.126c-17.32,0-31.375-14.036-31.375-31.364c0-17.339,14.055-31.376,31.375-31.376
		c17.328,0,31.379,14.037,31.379,31.376C467.068,413.09,453.018,427.126,435.689,427.126z M486.766,317.021
		c-10.877,0-19.697-8.812-19.697-19.689c0-10.866,8.82-19.688,19.697-19.688c10.885,0,19.701,8.821,19.701,19.688
		C506.467,308.21,497.65,317.021,486.766,317.021z"/>
	<path fill="#24353C" d="M138.193,0c-17.633,0-31.957,14.332-31.957,31.951v4.912v44.391c0,17.622,14.324,31.953,31.957,31.953
		c17.615,0,31.953-14.331,31.953-31.953V36.863v-4.912C170.146,14.332,155.809,0,138.193,0z"/>
	<path fill="#F85B3C" d="M276.375,184.349V36.863h-91.627v44.391c0,25.669-20.887,46.556-46.555,46.556
		c-25.674,0-46.564-20.887-46.564-46.556V36.863H55.275C24.75,36.863,0,61.613,0,92.132v92.217H276.375z"/>
	<path fill="#24353C" d="M0,209.04v288.44c0,30.53,24.75,55.271,55.275,55.271h221.1V209.04H0z"/>
</g>
</svg>
