<?xml version="1.0" encoding="utf-8"?>
<!-- Generator: Adobe Illustrator 16.0.0, SVG Export Plug-In . SVG Version: 6.00 Build 0)  -->
<!DOCTYPE svg PUBLIC "-//W3C//DTD SVG 1.1//EN" "http://www.w3.org/Graphics/SVG/1.1/DTD/svg11.dtd">
<svg version="1.1" id="Layer_1" xmlns="http://www.w3.org/2000/svg" xmlns:xlink="http://www.w3.org/1999/xlink" x="0px" y="0px"
	 width="1567.249px" height="793.469px" viewBox="0 0 1567.249 793.469" enable-background="new 0 0 1567.249 793.469"
	 xml:space="preserve">
<g>
	<g>
		<path fill="#24353C" d="M805.19,36.863v57.02v401.849v57.02c142.463,0,257.943-115.498,257.943-257.956
			C1063.133,152.35,947.653,36.863,805.19,36.863z M971.184,162.475c17.338,0,31.387,14.039,31.387,31.378
			c0,17.325-14.049,31.364-31.387,31.364c-17.324,0-31.365-14.039-31.365-31.364C939.819,176.514,953.86,162.475,971.184,162.475z
			 M879.895,162.475c12.223,0,22.139,9.916,22.139,22.143c0,12.243-9.916,22.144-22.139,22.144c-12.234,0-22.15-9.9-22.15-22.144
			C857.745,172.391,867.661,162.475,879.895,162.475z M857.745,301.256c0-17.327,14.057-31.378,31.373-31.378
			c17.338,0,31.381,14.051,31.381,31.378c0,17.326-14.043,31.365-31.381,31.365C871.801,332.621,857.745,318.582,857.745,301.256z
			 M939.805,427.126c-17.32,0-31.375-14.036-31.375-31.364c0-17.339,14.055-31.376,31.375-31.376
			c17.328,0,31.379,14.037,31.379,31.376C971.184,413.09,957.133,427.126,939.805,427.126z M990.881,317.021
			c-10.877,0-19.697-8.812-19.697-19.689c0-10.866,8.82-19.688,19.697-19.688c10.885,0,19.701,8.821,19.701,19.688
			C1010.583,308.21,1001.766,317.021,990.881,317.021z"/>
		<path fill="#24353C" d="M642.309,0c-17.633,0-31.957,14.332-31.957,31.951v4.912v44.391c0,17.622,14.324,31.953,31.957,31.953
			c17.615,0,31.953-14.331,31.953-31.953V36.863v-4.912C674.262,14.332,659.924,0,642.309,0z"/>
		<path fill="#F85B3C" d="M780.491,184.349V36.863h-91.627v44.391c0,25.669-20.887,46.556-46.555,46.556
			c-25.674,0-46.564-20.887-46.564-46.556V36.863h-36.354c-30.525,0-55.275,24.75-55.275,55.269v92.217H780.491z"/>
		<path fill="#24353C" d="M504.116,209.04v288.44c0,30.53,24.75,55.271,55.275,55.271h221.1V209.04H504.116z"/>
	</g>
	<g>
		<polygon fill="#24353C" points="165.502,694.487 31.047,694.487 31.047,629.132 0,629.132 0,793.469 31.047,793.469 
			31.047,718.769 165.502,718.769 165.502,793.469 196.547,793.469 196.547,629.132 165.502,629.132 		"/>
		<path fill="#24353C" d="M320.965,629.132L211.719,793.469h34.549l33.854-52.019h103.715l33.301,52.019h35.014L343.608,629.132
			H320.965z M295.926,717.171l36.479-56.06l35.887,56.06H295.926z"/>
		<polygon fill="#24353C" points="498.606,629.132 467.325,629.132 467.325,793.469 631.895,793.469 631.895,769.188 
			498.606,769.188 		"/>
		<path fill="#24353C" d="M827.04,754.017c0,10.114-6.85,15.172-20.541,15.172H704.487c-13.695,0-20.541-5.058-20.541-15.172
			V629.132h-31.045v124.649c0,5.917,0.936,11.284,2.797,16.105c1.869,4.83,4.865,8.988,8.992,12.492
			c4.117,3.505,9.449,6.228,15.986,8.167c6.537,1.954,14.477,2.923,23.811,2.923h108.547c9.336,0,16.924-0.969,22.76-2.923
			c5.836-1.939,10.422-4.662,13.771-8.167c3.344-3.504,5.602-7.662,6.771-12.492c1.164-4.821,1.746-10.188,1.746-16.105V629.132
			H827.04V754.017z"/>
		<polygon fill="#24353C" points="1078.211,751.217 914.579,629.132 887.729,629.132 887.729,793.469 914.807,793.469 
			914.807,665.544 1090.116,793.469 1105.288,793.469 1105.288,629.132 1078.211,629.132 		"/>
		<path fill="#24353C" d="M1229.702,629.132l-109.242,164.337h34.549l33.852-52.019h103.715l33.305,52.019h35.012l-108.543-164.337
			H1229.702z M1204.663,717.171l36.48-56.06l35.889,56.06H1204.663z"/>
		<path fill="#24353C" d="M1567.249,680.486v-11.672c0-5.917-0.932-11.278-2.803-16.108c-1.867-4.821-4.863-8.983-8.986-12.489
			c-4.125-3.499-9.455-6.222-15.992-8.168c-6.535-1.947-14.471-2.917-23.811-2.917h-139.588v164.337h31.045v-73.301h86.605
			l38.514,73.301h33.146l-38.748-73.766c14.625-1.405,25.053-5.639,31.283-12.726
			C1564.133,699.898,1567.249,691.071,1567.249,680.486z M1536.202,680.716c0,10.12-6.852,15.178-20.545,15.178h-108.543v-42.486
			h108.543c13.693,0,20.545,5.058,20.545,15.172V680.716z"/>
	</g>
</g>
</svg>
